<svg xmlns="http://www.w3.org/2000/svg" viewBox="0 0 900 320" fill="none">
  <defs>
    <linearGradient id="bg" x1="0" y1="0" x2="900" y2="320" gradientUnits="userSpaceOnUse">
      <stop offset="0%" stop-color="#0d1117"/>
      <stop offset="100%" stop-color="#161b22"/>
    </linearGradient>
    <linearGradient id="accent" x1="0" y1="0" x2="1" y2="1">
      <stop offset="0%" stop-color="#58a6ff"/>
      <stop offset="100%" stop-color="#bc8cff"/>
    </linearGradient>
    <linearGradient id="rust" x1="0" y1="0" x2="1" y2="0">
      <stop offset="0%" stop-color="#dea584"/>
      <stop offset="100%" stop-color="#f5c2a0"/>
    </linearGradient>
  </defs>

  <!-- Background -->
  <rect width="900" height="320" rx="12" fill="url(#bg)"/>
  <rect x="1" y="1" width="898" height="318" rx="11" stroke="url(#accent)" stroke-width="1" fill="none" opacity="0.3"/>

  <!-- Pipeline flow arrows -->
  <g opacity="0.15" stroke="#58a6ff" stroke-width="1.5">
    <line x1="60" y1="160" x2="840" y2="160"/>
    <polygon points="840,155 850,160 840,165" fill="#58a6ff"/>
  </g>

  <!-- Pipeline boxes -->
  <g font-family="ui-monospace,SFMono-Regular,Menlo,monospace" font-size="11" text-anchor="middle">
    <!-- import -->
    <rect x="55" y="135" width="75" height="50" rx="6" fill="#161b22" stroke="#30363d"/>
    <text x="92" y="157" fill="#7ee787">import</text>
    <text x="92" y="172" fill="#8b949e" font-size="9">HF→.apr</text>

    <!-- distill -->
    <rect x="155" y="135" width="75" height="50" rx="6" fill="#161b22" stroke="#30363d"/>
    <text x="192" y="157" fill="#7ee787">distill</text>
    <text x="192" y="172" fill="#8b949e" font-size="9">32B→7B</text>

    <!-- finetune -->
    <rect x="255" y="135" width="75" height="50" rx="6" fill="#161b22" stroke="#30363d"/>
    <text x="292" y="157" fill="#7ee787">finetune</text>
    <text x="292" y="172" fill="#8b949e" font-size="9">LoRA</text>

    <!-- merge -->
    <rect x="355" y="135" width="75" height="50" rx="6" fill="#161b22" stroke="#30363d"/>
    <text x="392" y="157" fill="#7ee787">merge</text>
    <text x="392" y="172" fill="#8b949e" font-size="9">TIES</text>

    <!-- prune -->
    <rect x="455" y="135" width="75" height="50" rx="6" fill="#161b22" stroke="#30363d"/>
    <text x="492" y="157" fill="#7ee787">prune</text>
    <text x="492" y="172" fill="#8b949e" font-size="9">Wanda</text>

    <!-- quantize -->
    <rect x="555" y="135" width="75" height="50" rx="6" fill="#161b22" stroke="#30363d"/>
    <text x="592" y="157" fill="#7ee787">quantize</text>
    <text x="592" y="172" fill="#8b949e" font-size="9">INT4</text>

    <!-- eval -->
    <rect x="655" y="135" width="75" height="50" rx="6" fill="#161b22" stroke="#30363d"/>
    <text x="692" y="157" fill="#7ee787">eval</text>
    <text x="692" y="172" fill="#8b949e" font-size="9">pass@k</text>

    <!-- submit -->
    <rect x="755" y="135" width="80" height="50" rx="6" fill="#161b22" stroke="#58a6ff" stroke-width="1.5"/>
    <text x="795" y="157" fill="#58a6ff">submit</text>
    <text x="795" y="172" fill="#8b949e" font-size="9">HF Hub</text>
  </g>

  <!-- Title -->
  <text x="450" y="55" font-family="ui-monospace,SFMono-Regular,Menlo,monospace" font-size="32" font-weight="bold" fill="url(#rust)" text-anchor="middle">apr-leaderboard</text>
  <text x="450" y="80" font-family="ui-monospace,SFMono-Regular,Menlo,monospace" font-size="14" fill="#8b949e" text-anchor="middle">HuggingFace leaderboard pipeline for the sovereign Rust AI stack</text>

  <!-- Bottom info boxes -->
  <g font-family="ui-monospace,SFMono-Regular,Menlo,monospace" font-size="11">
    <!-- aprender -->
    <rect x="80" y="220" width="160" height="65" rx="6" fill="#161b22" stroke="#30363d"/>
    <text x="160" y="240" fill="#f5c2a0" text-anchor="middle" font-weight="bold">aprender</text>
    <text x="160" y="255" fill="#8b949e" text-anchor="middle" font-size="10">.apr format + inference</text>
    <text x="160" y="270" fill="#8b949e" text-anchor="middle" font-size="10">40+ CLI subcommands</text>

    <!-- entrenar -->
    <rect x="270" y="220" width="160" height="65" rx="6" fill="#161b22" stroke="#30363d"/>
    <text x="350" y="240" fill="#f5c2a0" text-anchor="middle" font-weight="bold">entrenar</text>
    <text x="350" y="255" fill="#8b949e" text-anchor="middle" font-size="10">LoRA/QLoRA training</text>
    <text x="350" y="270" fill="#8b949e" text-anchor="middle" font-size="10">autograd + AdamW</text>

    <!-- trueno -->
    <rect x="460" y="220" width="160" height="65" rx="6" fill="#161b22" stroke="#30363d"/>
    <text x="540" y="240" fill="#f5c2a0" text-anchor="middle" font-weight="bold">trueno</text>
    <text x="540" y="255" fill="#8b949e" text-anchor="middle" font-size="10">SIMD + wgpu compute</text>
    <text x="540" y="270" fill="#8b949e" text-anchor="middle" font-size="10">AVX2 / wgpu GPU</text>

    <!-- provable-contracts -->
    <rect x="650" y="220" width="170" height="65" rx="6" fill="#161b22" stroke="#30363d"/>
    <text x="735" y="240" fill="#f5c2a0" text-anchor="middle" font-weight="bold">provable-contracts</text>
    <text x="735" y="255" fill="#8b949e" text-anchor="middle" font-size="10">Kani bounded proofs</text>
    <text x="735" y="270" fill="#8b949e" text-anchor="middle" font-size="10">262 proof obligations</text>
  </g>

  <!-- Zero Python badge -->
  <rect x="360" y="96" width="180" height="22" rx="11" fill="#238636" opacity="0.9"/>
  <text x="450" y="111" font-family="ui-monospace,SFMono-Regular,Menlo,monospace" font-size="11" fill="#ffffff" text-anchor="middle" font-weight="bold">Zero Python. Pure Rust.</text>
</svg>
